<svg viewBox="0 0 96 96" xmlns="http://www.w3.org/2000/svg" xmlns:xlink="http://www.w3.org/1999/xlink" id="Icons_MoustacheFaceOutline" overflow="hidden"><circle cx="64" cy="42" r="6"/><path d="M68.29 57C67.44 56.47 65.94 56.12 65.16 56.94 68.36 56.02 68.97 61.39 66.01 61.42 64.01 61.42 61.64 59.54 60.01 58.61 57.57 57.2 55.3 55.61 52.34 55.76 50.7234 55.8742 49.1933 56.5335 48 57.63 46.8096 56.5168 45.2751 55.843 43.65 55.72 40.65 55.57 38.42 57.16 35.98 58.57 34.36 59.5 31.98 61.4 29.98 61.38 26.98 61.38 27.63 55.98 30.83 56.9 30.05 56.08 28.55 56.43 27.7 56.96 26.4745 57.8288 25.8222 59.2983 26 60.79 26.3 64.15 29.28 65.79 32.3 66.35 35.7071 66.8416 39.1834 66.4562 42.4 65.23 44.12 64.63 46.64 63.67 47.98 62.06 49.32 63.67 51.84 64.63 53.56 65.23 56.7766 66.4562 60.2529 66.8417 63.66 66.35 66.66 65.8 69.66 64.15 69.96 60.79 70.1292 59.3177 69.4907 57.8687 68.29 57Z"/><path d="M40 42C40 40.8954 39.1046 40 38 40L26 40C24.8954 40 24 40.8954 24 42 24 43.1046 24.8954 44 26 44L38 44C39.1046 44 40 43.1046 40 42Z"/><path d="M48 14C66.7777 14 82 29.2223 82 48 82 66.7777 66.7777 82 48 82 29.2223 82 14 66.7777 14 48 14 29.2223 29.2223 14 48 14M48 10C27.0132 10 10 27.0132 10 48 10 68.9868 27.0132 86 48 86 68.9868 86 86 68.9868 86 48 86 27.0132 68.9868 10 48 10Z"/></svg>